# xmcd
#
# Track frame offsets: 
#        150
#        18960
#        43282
#        59807
#        78790
#        95304
#        120112
#        133127
#        157400
#        180522
#        203005
#        222360
#        245570
#        256315
#
# Disc length: 3667 seconds
#
# Revision: 2
# Processed by: cddbd v1.5.2PL0 Copyright (c) Steve Scherf et al.
# Submitted via: ExactAudioCopy v1.3
#
DISCID=c30e510e
DTITLE=Various Artist - Blues Revue sampler Dec-Jan 2005
DYEAR=2005
DGENRE=Blues
TTITLE0=Michael Powers - Successful son
TTITLE1=Fruteland Jackson - Blues 2.0
TTITLE2=Paul Gargiulo Band - She be my queen
TTITLE3=The Groove Hogs - Blind man
TTITLE4=Deanna Bogart Band - People can be just plain wrong
TTITLE5=Eddie Martin - Ice cream
TTITLE6=W.C. Spencer - I said the blues
TTITLE7=Liz Mandeville Greeson - He's her baby too
TTITLE8=The Hep Cat Boo Daddies - Too damn old
TTITLE9=Chronic Tendencies - Rendezvous
TTITLE10=David Jacobs-Strain - Sleepless dream
TTITLE11=J.T. Lauritsen - Junkie for your love
TTITLE12=Bob Angell's Blues Outlet - Olneyville stomp
TTITLE13=Little Toby Walker - Who's gonna be your sweet man tonight?
EXTD=
EXTT0=
EXTT1=
EXTT2=
EXTT3=
EXTT4=
EXTT5=
EXTT6=
EXTT7=
EXTT8=
EXTT9=
EXTT10=
EXTT11=
EXTT12=
EXTT13=
PLAYORDER=
